<svg width="25" height="24" viewBox="0 0 25 24" fill="none" xmlns="http://www.w3.org/2000/svg">
<path d="M21.7831 13.64V14.64C21.7831 14.91 21.5731 15.13 21.2931 15.14H19.8331C19.3031 15.14 18.8231 14.75 18.7831 14.23C18.7531 13.92 18.8731 13.63 19.0731 13.43C19.2531 13.24 19.5031 13.14 19.7731 13.14H21.2831C21.5731 13.15 21.7831 13.37 21.7831 13.64Z" fill="#757575"/>
<path d="M18.3232 12.69C17.8232 13.18 17.5832 13.91 17.7832 14.67C18.0432 15.6 18.9532 16.19 19.9132 16.19H20.7832C21.3332 16.19 21.7832 16.64 21.7832 17.19V17.38C21.7832 19.45 20.0932 21.14 18.0232 21.14H6.5432C4.4732 21.14 2.7832 19.45 2.7832 17.38V10.65C2.7832 9.42001 3.3732 8.33001 4.2832 7.65001C4.9132 7.17001 5.6932 6.89001 6.5432 6.89001H18.0232C20.0932 6.89001 21.7832 8.58001 21.7832 10.65V11.09C21.7832 11.64 21.3332 12.09 20.7832 12.09H19.7632C19.2032 12.09 18.6932 12.31 18.3232 12.69Z" fill="#3629B7"/>
<path d="M16.5333 4.82C16.8033 5.09 16.5733 5.51 16.1933 5.51L8.51331 5.5C8.07331 5.5 7.84331 4.96 8.16331 4.65L9.78331 3.02C11.1533 1.66 13.3733 1.66 14.7433 3.02L16.4933 4.79C16.5033 4.8 16.5233 4.81 16.5333 4.82Z" fill="#3629B7"/>
</svg>
