<svg width="22" height="21" viewBox="0 0 22 21" fill="none" xmlns="http://www.w3.org/2000/svg">
<path d="M9.0427 1.65016L9.04309 1.64985C10.1273 0.779042 11.8675 0.784136 12.968 1.66073C12.9681 1.66084 12.9683 1.66094 12.9684 1.66105L19.5141 6.89756C19.5146 6.89802 19.5152 6.89849 19.5158 6.89895C19.893 7.20711 20.2197 7.68942 20.4304 8.24099C20.641 8.79218 20.7196 9.36987 20.6463 9.85096L19.3874 17.3845C19.3873 17.385 19.3872 17.3855 19.3871 17.3859C19.1375 18.8188 17.7432 20 16.3 20H5.69999C4.23552 20 2.87253 18.8476 2.62297 17.3965C2.62291 17.3961 2.62285 17.3958 2.62279 17.3955L1.36316 9.85761L1.36296 9.85646C1.28082 9.3718 1.35455 8.79296 1.56468 8.24192C1.77479 7.69094 2.10552 7.20909 2.49183 6.90086L2.4927 6.90016L9.0427 1.65016ZM11 17.75C11.6861 17.75 12.25 17.1862 12.25 16.5V13.5C12.25 12.8139 11.6861 12.25 11 12.25C10.3139 12.25 9.74999 12.8139 9.74999 13.5V16.5C9.74999 17.1862 10.3139 17.75 11 17.75Z" fill="#3629B7" stroke="#3629B7"/>
</svg>
