<svg width="31" height="31" viewBox="0 0 31 31" fill="none" xmlns="http://www.w3.org/2000/svg">
<path d="M21.6104 0.916656H9.38958C4.08125 0.916656 0.916668 4.08124 0.916668 9.38957V21.5958C0.916668 26.9187 4.08125 30.0833 9.38958 30.0833H21.5958C26.9042 30.0833 30.0687 26.9187 30.0687 21.6104V9.38957C30.0833 4.08124 26.9188 0.916656 21.6104 0.916656ZM24.25 16.5937H9.38958L13.7792 20.9833C14.2021 21.4062 14.2021 22.1062 13.7792 22.5292C13.5604 22.7479 13.2833 22.85 13.0063 22.85C12.7292 22.85 12.4521 22.7479 12.2333 22.5292L5.97708 16.2729C5.77292 16.0687 5.65625 15.7917 5.65625 15.5C5.65625 15.2083 5.77292 14.9312 5.97708 14.7271L12.2333 8.47082C12.6563 8.04791 13.3562 8.04791 13.7792 8.47082C14.2021 8.89374 14.2021 9.59374 13.7792 10.0167L9.38958 14.4062H24.25C24.8479 14.4062 25.3438 14.9021 25.3438 15.5C25.3438 16.0979 24.8479 16.5937 24.25 16.5937Z" fill="#121212"/>
</svg>
