<svg width="31" height="28" viewBox="0 0 31 28" fill="none" xmlns="http://www.w3.org/2000/svg">
<path d="M22.99 0H8.00998C7.01675 0 6.06419 0.368749 5.36187 1.02513C4.65955 1.6815 4.26498 2.57174 4.26498 3.5V24.5C4.26498 25.4283 4.65955 26.3185 5.36187 26.9749C6.06419 27.6313 7.01675 28 8.00998 28H22.99C23.9832 28 24.9358 27.6313 25.6381 26.9749C26.3404 26.3185 26.735 25.4283 26.735 24.5V3.5C26.735 2.57174 26.3404 1.6815 25.6381 1.02513C24.9358 0.368749 23.9832 0 22.99 0V0ZM24.2383 23.3333C24.2383 23.6428 24.1068 23.9395 23.8727 24.1583C23.6386 24.3771 23.3211 24.5 22.99 24.5H8.00998C7.67891 24.5 7.36139 24.3771 7.12728 24.1583C6.89317 23.9395 6.76165 23.6428 6.76165 23.3333V4.66667C6.76165 4.35725 6.89317 4.0605 7.12728 3.84171C7.36139 3.62292 7.67891 3.5 8.00998 3.5H22.99C23.3211 3.5 23.6386 3.62292 23.8727 3.84171C24.1068 4.0605 24.2383 4.35725 24.2383 4.66667V23.3333Z" fill="#FB6B18"/>
<path d="M19.9266 14.679C19.1009 13.9602 18.1153 13.4212 17.0404 13.1005L16.2065 12.803V9.06964C17.3822 9.16046 18.5365 9.4161 19.6307 9.82798L20.4309 7.95198C19.0878 7.43896 17.6569 7.156 16.2065 7.11664V5.41681H14.751V7.13764C13.5905 7.20152 12.4767 7.58696 11.5515 8.24481C11.1752 8.52195 10.8729 8.87695 10.6684 9.28185C10.4639 9.68676 10.3628 10.1305 10.3731 10.5781C10.3467 11.3872 10.6415 12.1767 11.2007 12.7948C11.9283 13.4994 12.8278 14.0287 13.8222 14.3371L14.7447 14.6556V18.4905C13.9813 18.4705 13.2228 18.3691 12.484 18.1883C11.7236 18.0201 10.9843 17.7777 10.2782 17.465V19.6315C11.6955 20.1702 13.2149 20.4353 14.7447 20.4108V22.5715H16.2028V20.3466C17.427 20.2846 18.6004 19.8688 19.5608 19.1566C19.9381 18.855 20.2388 18.4786 20.4411 18.0548C20.6434 17.6311 20.7423 17.1705 20.7305 16.7066C20.7504 15.9595 20.4626 15.2336 19.9266 14.679ZM14.7422 12.2966C14.2204 12.1346 13.7405 11.8727 13.3329 11.5278C13.0703 11.264 12.9298 10.9138 12.9421 10.5536C12.9392 10.3744 12.9791 10.1968 13.0588 10.0338C13.1384 9.87073 13.2559 9.7263 13.4028 9.61098C13.7887 9.32729 14.2535 9.1528 14.7422 9.10814V12.2966ZM16.2003 18.4041V15.1375C16.7405 15.2956 17.2446 15.546 17.6871 15.876C17.8325 15.9996 17.9475 16.1513 18.0242 16.3204C18.101 16.4896 18.1375 16.6723 18.1315 16.856C18.1331 17.703 17.4894 18.219 16.2003 18.4041Z" fill="#FB6B18"/>
</svg>
