<svg width="31" height="28" viewBox="0 0 31 28" fill="none" xmlns="http://www.w3.org/2000/svg">
<g clip-path="url(#clip0_17_1189)">
<path d="M29.2317 4.66667H5.51332H4.26499C3.57716 4.66667 3.01666 4.14283 3.01666 3.5C3.01666 2.85717 3.57716 2.33333 4.26499 2.33333H22.99V3.5H25.4867V1.16667C25.4867 0.522667 24.9274 0 24.2383 0H4.26499C2.1965 0 0.519989 1.56683 0.519989 3.5V23.3333C0.519989 25.9105 2.75575 28 5.51332 28H29.2317C29.9207 28 30.48 27.4773 30.48 26.8333V5.83333C30.48 5.18933 29.9207 4.66667 29.2317 4.66667ZM22.99 18.6667C21.6106 18.6667 20.4933 17.6225 20.4933 16.3333C20.4933 15.0442 21.6106 14 22.99 14C24.3694 14 25.4867 15.0442 25.4867 16.3333C25.4867 17.6225 24.3694 18.6667 22.99 18.6667Z" fill="#FFAF2A"/>
</g>
<defs>
<clipPath id="clip0_17_1189">
<rect width="29.96" height="28" fill="white" transform="translate(0.519989)"/>
</clipPath>
</defs>
</svg>
