<svg width="31" height="28" viewBox="0 0 31 28" fill="none" xmlns="http://www.w3.org/2000/svg">
<g clip-path="url(#clip0_17_1193)">
<path d="M22.99 7V8.16667H25.4867V7C25.4867 3.1395 22.1274 0 17.9967 0H16.7483V2.33333H17.9967C20.7505 2.33333 22.99 4.42633 22.99 7Z" fill="#FF4267"/>
<path d="M8.01 21V19.8333H5.51334V21C5.51334 24.8605 8.8726 28 13.0033 28H14.2517V25.6666H13.0033C10.2495 25.6666 8.01 23.5736 8.01 21Z" fill="#FF4267"/>
<path d="M11.755 0H3.01666C1.63725 0 0.519989 1.04417 0.519989 2.33333V15.1667C0.519989 16.4558 1.63725 17.5 3.01666 17.5H11.755C13.1344 17.5 14.2517 16.4558 14.2517 15.1667V2.33333C14.2517 1.04417 13.1344 0 11.755 0ZM11.755 14H3.01666V3.5H11.755V14Z" fill="#FF4267"/>
<path d="M27.9833 10.5H19.245C17.8656 10.5 16.7483 11.5442 16.7483 12.8333V25.6667C16.7483 26.9558 17.8656 28 19.245 28H27.9833C29.3627 28 30.48 26.9558 30.48 25.6667V12.8333C30.48 11.5442 29.3627 10.5 27.9833 10.5ZM27.9833 24.5H19.245V14H27.9833V24.5Z" fill="#FF4267"/>
</g>
<defs>
<clipPath id="clip0_17_1193">
<rect width="29.96" height="28" fill="white" transform="translate(0.519989)"/>
</clipPath>
</defs>
</svg>
