<svg width="31" height="28" viewBox="0 0 31 28" fill="none" xmlns="http://www.w3.org/2000/svg">
<g clip-path="url(#clip0_17_1205)">
<path d="M21.1175 8.16665H11.2769C9.93994 6.03632 7.6842 5.70615 6.58442 5.84498L5.16132 6.03515L6.44461 10.1523C5.48214 10.8908 4.6882 11.7985 4.10523 12.8333H0.52002V21H4.09774C5.61197 23.6868 8.50311 25.4252 11.755 25.627V28H14.2517V25.6667H19.245V28H21.7417V25.6375C26.6127 25.3353 30.48 21.5448 30.48 16.9167C30.48 12.0913 26.2806 8.16665 21.1175 8.16665ZM21.7417 15.1667H13.0034V12.8333H21.7417V15.1667Z" fill="#3629B7"/>
<path d="M17.3725 5.83333C19.0961 5.83333 20.4934 4.5275 20.4934 2.91667C20.4934 1.30584 19.0961 0 17.3725 0C15.649 0 14.2517 1.30584 14.2517 2.91667C14.2517 4.5275 15.649 5.83333 17.3725 5.83333Z" fill="#3629B7"/>
</g>
<defs>
<clipPath id="clip0_17_1205">
<rect width="29.96" height="28" fill="white" transform="translate(0.52002)"/>
</clipPath>
</defs>
</svg>
