<svg width="31" height="28" viewBox="0 0 31 28" fill="none" xmlns="http://www.w3.org/2000/svg">
<g clip-path="url(#clip0_17_1221)">
<path d="M30.48 4.66663H26.735V10.5H30.48V4.66663Z" fill="#0890FE"/>
<path d="M30.48 12.8334H26.735V18.6667H30.48V12.8334Z" fill="#0890FE"/>
<path d="M21.7417 0H1.76837V28H21.7417C23.8064 28 25.4867 26.4297 25.4867 24.5V3.5C25.4867 1.57033 23.8064 0 21.7417 0ZM13.6275 7C15.3515 7 16.7484 8.3055 16.7484 9.91667C16.7484 11.5278 15.3515 12.8333 13.6275 12.8333C11.9036 12.8333 10.5067 11.5278 10.5067 9.91667C10.5067 8.3055 11.9036 7 13.6275 7ZM19.245 19.8333H8.01004V17.9422C8.01004 16.9027 8.74031 15.9938 9.80764 15.6998C10.8001 15.4257 12.1333 15.1667 13.6275 15.1667C15.1218 15.1667 16.455 15.4257 17.4474 15.6998C18.5148 15.9938 19.245 16.9027 19.245 17.9422V19.8333Z" fill="#0890FE"/>
</g>
<defs>
<clipPath id="clip0_17_1221">
<rect width="29.96" height="28" fill="white" transform="translate(0.52002)"/>
</clipPath>
</defs>
</svg>
