<svg width="31" height="28" viewBox="0 0 31 28" fill="none" xmlns="http://www.w3.org/2000/svg">
<g clip-path="url(#clip0_17_1217)">
<path d="M3.01666 1.16667V26.8333C3.01666 27.1428 3.14818 27.4395 3.38229 27.6583C3.6164 27.8771 3.93392 28 4.265 28H26.735C27.0661 28 27.3836 27.8771 27.6177 27.6583C27.8518 27.4395 27.9833 27.1428 27.9833 26.8333V1.16667C27.9833 0.857247 27.8518 0.560501 27.6177 0.341709C27.3836 0.122916 27.0661 0 26.735 0L4.265 0C3.93392 0 3.6164 0.122916 3.38229 0.341709C3.14818 0.560501 3.01666 0.857247 3.01666 1.16667ZM6.76166 5.83333H14.2517V12.8333H6.76166V5.83333ZM24.2383 22.1667H6.76166V19.8333H24.2383V22.1667ZM24.2383 17.5H6.76166V15.1667H24.2383V17.5ZM24.2383 12.8333H16.7483V10.5H24.2383V12.8333ZM24.2383 8.16667H16.7483V5.83333H24.2383V8.16667Z" fill="#5655B9"/>
</g>
<defs>
<clipPath id="clip0_17_1217">
<rect width="29.96" height="28" fill="white" transform="translate(0.519989)"/>
</clipPath>
</defs>
</svg>
