<svg width="31" height="28" viewBox="0 0 31 28" fill="none" xmlns="http://www.w3.org/2000/svg">
<path d="M26.735 0H4.265C3.57592 0 3.01666 0.5215 3.01666 1.16667V28L8.01 24.5L11.755 28L15.5 24.5L19.245 28L22.99 24.5L27.9833 28V1.16667C27.9833 0.5215 27.4241 0 26.735 0ZM16.7483 18.6667H8.01V16.3333H16.7483V18.6667ZM16.7483 14H8.01V11.6667H16.7483V14ZM16.7483 9.33333H8.01V7H16.7483V9.33333ZM22.99 18.6667H19.245V16.3333H22.99V18.6667ZM22.99 14H19.245V11.6667H22.99V14ZM22.99 9.33333H19.245V7H22.99V9.33333Z" fill="#A8A3D7"/>
</svg>
