<svg width="30" height="30" viewBox="0 0 30 30" fill="none" xmlns="http://www.w3.org/2000/svg">
<path d="M21 11.25H15.9375V16.8L18.525 14.2125C18.7125 14.025 18.95 13.9375 19.1875 13.9375C19.425 13.9375 19.6625 14.025 19.85 14.2125C20.2125 14.575 20.2125 15.175 19.85 15.5375L15.6625 19.725C15.3 20.0875 14.7 20.0875 14.3375 19.725L10.15 15.5375C9.7875 15.175 9.7875 14.575 10.15 14.2125C10.5125 13.85 11.1125 13.85 11.475 14.2125L14.0625 16.8V11.25H9C5 11.25 2.5 13.75 2.5 17.75V20.9875C2.5 25 5 27.5 9 27.5H20.9875C24.9875 27.5 27.4875 25 27.4875 21V17.75C27.5 13.75 25 11.25 21 11.25Z" fill="#52D5BA"/>
<path d="M15.9375 3.4375C15.9375 2.925 15.5125 2.5 15 2.5C14.4875 2.5 14.0625 2.925 14.0625 3.4375V11.25H15.9375V3.4375Z" fill="#52D5BA"/>
</svg>
