<svg width="25" height="24" viewBox="0 0 25 24" fill="none" xmlns="http://www.w3.org/2000/svg">
<path d="M21.7831 13.6399V14.6399C21.7831 14.9099 21.5731 15.1299 21.2931 15.1399H19.8331C19.3031 15.1399 18.8231 14.7499 18.7831 14.2299C18.7531 13.9199 18.8731 13.6299 19.0731 13.4299C19.2531 13.2399 19.5031 13.1399 19.7731 13.1399H21.2831C21.5731 13.1499 21.7831 13.3699 21.7831 13.6399Z" fill="#FFAF2A"/>
<path d="M18.3232 12.6899C17.8232 13.1799 17.5832 13.9099 17.7832 14.6699C18.0432 15.5999 18.9532 16.1899 19.9132 16.1899H20.7832C21.3332 16.1899 21.7832 16.6399 21.7832 17.1899V17.3799C21.7832 19.4499 20.0932 21.1399 18.0232 21.1399H6.5432C4.4732 21.1399 2.7832 19.4499 2.7832 17.3799V10.6499C2.7832 9.41989 3.3732 8.32989 4.2832 7.64989C4.9132 7.16989 5.6932 6.88989 6.5432 6.88989H18.0232C20.0932 6.88989 21.7832 8.57989 21.7832 10.6499V11.0899C21.7832 11.6399 21.3332 12.0899 20.7832 12.0899H19.7632C19.2032 12.0899 18.6932 12.3099 18.3232 12.6899Z" fill="#FFAF2A"/>
<path d="M16.5333 4.82C16.8033 5.09 16.5733 5.51 16.1933 5.51L8.51331 5.5C8.07331 5.5 7.84331 4.96 8.16331 4.65L9.78331 3.02C11.1533 1.66 13.3733 1.66 14.7433 3.02L16.4933 4.79C16.5033 4.8 16.5233 4.81 16.5333 4.82Z" fill="#FFAF2A"/>
</svg>
