<svg width="18" height="20" viewBox="0 0 18 20" fill="none" xmlns="http://www.w3.org/2000/svg">
<path fill-rule="evenodd" clip-rule="evenodd" d="M15.0378 10.6281C15.051 9.06917 15.953 7.63224 17.4253 6.81927C16.4968 5.61232 14.9991 4.87036 13.3798 4.81936C11.6522 4.65937 10.0638 5.72932 9.14419 5.72932C8.22898 5.72932 6.93354 4.83936 5.49551 4.85836C3.58772 4.91736 1.85126 5.87831 0.922782 7.39025C-1.0237 10.4481 0.42207 14.9989 2.36965 17.4678C3.25502 18.6787 4.36034 20.0497 5.81937 19.9987C7.2784 19.9477 7.75369 19.1787 9.44263 19.1787C11.1349 19.1787 11.6522 19.9987 13.0902 19.9677C14.5282 19.9407 15.5473 18.7297 16.4758 17.5188C17.1324 16.6398 17.6452 15.6789 18.0001 14.6709C16.2083 13.98 15.0422 12.39 15.0378 10.6281ZM12.2525 3.19037C13.0948 2.30841 13.5181 1.15946 13.4231 -0.000488281C12.1409 0.0935076 10.9493 0.640483 10.1071 1.51944C9.29135 2.37041 8.89343 3.48736 9.00175 4.60831C10.2718 4.62031 11.471 4.09333 12.2525 3.19037Z" fill="white"/>
</svg>
