<svg width="24" height="25" viewBox="0 0 24 25" fill="none" xmlns="http://www.w3.org/2000/svg">
<path d="M7 2.75H6C3 2.75 2 4.54 2 6.75V7.75V21.75C2 22.58 2.94 23.05 3.6 22.55L5.31 21.27C5.71 20.97 6.27 21.01 6.63 21.37L8.29 23.04C8.68 23.43 9.32 23.43 9.71 23.04L11.39 21.36C11.74 21.01 12.3 20.97 12.69 21.27L14.4 22.55C15.06 23.04 16 22.57 16 21.75V4.75C16 3.65 16.9 2.75 18 2.75H7ZM11.25 14.5H6.75C6.34 14.5 6 14.16 6 13.75C6 13.34 6.34 13 6.75 13H11.25C11.66 13 12 13.34 12 13.75C12 14.16 11.66 14.5 11.25 14.5ZM12 10.5H6C5.59 10.5 5.25 10.16 5.25 9.75C5.25 9.34 5.59 9 6 9H12C12.41 9 12.75 9.34 12.75 9.75C12.75 10.16 12.41 10.5 12 10.5Z" fill="#FFAF2A"/>
<path d="M18.01 2.75V4.25C18.67 4.25 19.3 4.52 19.76 4.97C20.24 5.46 20.5 6.09 20.5 6.75V9.17C20.5 9.91 20.17 10.25 19.42 10.25H17.5V4.76C17.5 4.48 17.73 4.25 18.01 4.25V2.75ZM18.01 2.75C16.9 2.75 16 3.65 16 4.76V11.75H19.42C21 11.75 22 10.75 22 9.17V6.75C22 5.65 21.55 4.65 20.83 3.92C20.1 3.2 19.11 2.76 18.01 2.75C18.02 2.75 18.01 2.75 18.01 2.75Z" fill="#FFAF2A"/>
</svg>
