<svg width="30" height="30" viewBox="0 0 30 30" fill="none" xmlns="http://www.w3.org/2000/svg">
<path d="M21 11.25H15.9375V19.0625C15.9375 19.575 15.5125 20 15 20C14.4875 20 14.0625 19.575 14.0625 19.0625V11.25H9C5 11.25 2.5 13.75 2.5 17.75V20.9875C2.5 25 5 27.5 9 27.5H20.9875C24.9875 27.5 27.4875 25 27.4875 21V17.75C27.5 13.75 25 11.25 21 11.25Z" fill="#0890FE"/>
<path d="M15.9375 5.69999L18.525 8.28749C18.7125 8.47499 18.95 8.56249 19.1875 8.56249C19.425 8.56249 19.6625 8.47499 19.85 8.28749C20.2125 7.92499 20.2125 7.32499 19.85 6.96249L15.6625 2.77499C15.3 2.41249 14.7 2.41249 14.3375 2.77499L10.15 6.96249C9.78749 7.32499 9.78749 7.92499 10.15 8.28749C10.5125 8.64999 11.1125 8.64999 11.475 8.28749L14.0625 5.69999V11.25H15.9375V5.69999Z" fill="#0890FE"/>
</svg>
