<svg width="21" height="20" viewBox="0 0 21 20" fill="none" xmlns="http://www.w3.org/2000/svg">
<mask id="mask0_1_1089" style="mask-type:luminance" maskUnits="userSpaceOnUse" x="0" y="5" width="5" height="10">
<path fill-rule="evenodd" clip-rule="evenodd" d="M0.499908 5.40117H4.93228V14.7389H0.499908V5.40117Z" fill="white"/>
</mask>
<g mask="url(#mask0_1_1089)">
<path fill-rule="evenodd" clip-rule="evenodd" d="M4.93229 12.0862L4.23616 14.6852L1.69163 14.7389C0.931276 13.3286 0.499908 11.7148 0.499908 10C0.499908 8.34183 0.90319 6.77797 1.61807 5.40117H1.61854L3.88385 5.81633L4.87628 8.06808C4.66862 8.67371 4.55538 9.32359 4.55538 10C4.55538 10.7341 4.68846 11.4374 4.93229 12.0862Z" fill="#FF95AE"/>
</g>
<mask id="mask1_1_1089" style="mask-type:luminance" maskUnits="userSpaceOnUse" x="10" y="8" width="11" height="10">
<path fill-rule="evenodd" clip-rule="evenodd" d="M10.7198 8.13185H20.4999V17.7983H10.7198V8.13185Z" fill="white"/>
</mask>
<g mask="url(#mask1_1_1089)">
<path fill-rule="evenodd" clip-rule="evenodd" d="M20.3252 8.13185C20.4401 8.73669 20.4999 9.36154 20.4999 9.99998C20.4999 10.7159 20.4247 11.4143 20.2813 12.0878C19.7945 14.3802 18.5226 16.3818 16.7604 17.7983L16.7599 17.7978L13.9066 17.6523L13.5027 15.1313C14.672 14.4456 15.5857 13.3725 16.0671 12.0878H10.7198V8.13185H20.3252Z" fill="#518EF8"/>
</g>
<path fill-rule="evenodd" clip-rule="evenodd" d="M16.7597 17.7978L16.7602 17.7983C15.0465 19.1759 12.8695 20 10.4998 20C6.6915 20 3.38048 17.8714 1.6915 14.7391L4.93216 12.0863C5.77673 14.34 7.95079 15.9445 10.4998 15.9445C11.5954 15.9445 12.6218 15.6484 13.5026 15.1314L16.7597 17.7978Z" fill="#28B446"/>
<path fill-rule="evenodd" clip-rule="evenodd" d="M16.8828 2.30227L13.6433 4.95437C12.7318 4.38461 11.6542 4.05547 10.4999 4.05547C7.89327 4.05547 5.67838 5.73348 4.87628 8.06809L1.61854 5.40117H1.61807C3.28233 2.19223 6.63503 0 10.4999 0C12.9262 0 15.1509 0.864258 16.8828 2.30227Z" fill="#F14336"/>
</svg>
