<svg width="44" height="44" viewBox="0 0 44 44" fill="none" xmlns="http://www.w3.org/2000/svg">
<rect width="44" height="44" rx="10" fill="white"/>
<path d="M28.4085 17.327C28.6405 15.849 28.407 14.8435 27.6075 13.9325C26.7275 12.9295 25.1375 12.5 23.103 12.5H17.198C16.7825 12.5 16.4285 12.8025 16.3635 13.213L13.9045 28.806C13.856 29.1135 14.094 29.392 14.405 29.392H18.0505L17.799 30.9875C17.7565 31.2565 17.9645 31.5 18.237 31.5H21.31C21.674 31.5 21.9835 31.2355 22.04 30.876L22.07 30.72L22.649 27.049L22.6865 26.846C22.743 26.4865 23.053 26.222 23.4165 26.222H23.876C26.853 26.222 29.184 25.0125 29.865 21.5145C30.1495 20.053 30.0025 18.833 29.25 17.9755C29.022 17.7165 28.739 17.502 28.4085 17.327Z" fill="#03A9F4"/>
<path d="M28.4085 17.327C28.6405 15.849 28.407 14.8435 27.6075 13.9325C26.7275 12.9295 25.1375 12.5 23.103 12.5H17.198C16.7825 12.5 16.4285 12.8025 16.3635 13.213L13.9045 28.806C13.856 29.1135 14.094 29.392 14.405 29.392H18.0505L18.9665 23.585L18.938 23.767C19.003 23.3565 19.354 23.0535 19.7695 23.0535H21.5025C24.9055 23.0535 27.57 21.671 28.3485 17.673C28.3715 17.5545 28.391 17.44 28.4085 17.327Z" fill="#3949AB"/>
<path d="M18.949 23.767C19.014 23.3565 19.365 23.0535 19.7805 23.0535H21.5135C27.4525 23.0535 28.1055 18.7935 28.42 17.327C28.2235 17.223 27.3065 16.7225 25.3205 16.7225H20.6915C20.578 16.7225 20.105 16.775 19.9615 17.3465L18.949 23.767Z" fill="#1A237E"/>
</svg>
