<svg width="45" height="44" viewBox="0 0 45 44" fill="none" xmlns="http://www.w3.org/2000/svg">
<rect x="0.5" width="44" height="44" rx="10" fill="white"/>
<path d="M22.5 34C29.1274 34 34.5 28.6274 34.5 22C34.5 15.3726 29.1274 10 22.5 10C15.8726 10 10.5 15.3726 10.5 22C10.5 28.6274 15.8726 34 22.5 34Z" fill="#5F259F"/>
<path d="M27.9464 18.8685C27.9464 18.3994 27.5441 17.9971 27.075 17.9971H25.4662L21.7792 13.7738C21.444 13.3715 20.9078 13.2375 20.3715 13.3715L19.0979 13.7738C18.8967 13.841 18.8295 14.1089 18.9639 14.2429L22.986 18.0643H16.8849C16.6838 18.0643 16.5498 18.1982 16.5498 18.3994V19.0696C16.5498 19.5387 16.9521 19.941 17.4212 19.941H18.3597V23.159C18.3597 25.5723 19.6334 26.9803 21.7788 26.9803C22.4491 26.9803 22.9857 26.9131 23.6559 26.6452V28.7906C23.6559 29.394 24.125 29.8631 24.7284 29.8631H25.667C25.8681 29.8631 26.0693 29.662 26.0693 29.4608V19.8742H27.6113C27.8124 19.8742 27.9464 19.7402 27.9464 19.5391V18.8685ZM23.6559 24.6338C23.2536 24.8349 22.7174 24.9021 22.3151 24.9021C21.2426 24.9021 20.7063 24.3658 20.7063 23.159V19.941H23.6559V24.6338Z" fill="white"/>
</svg>
