<svg width="24" height="24" viewBox="0 0 24 24" fill="none" xmlns="http://www.w3.org/2000/svg">
<path d="M15.6667 23H13.2222V20.5556H15.6667V23ZM13.2222 14.4444H10.7778V20.5556H13.2222V14.4444ZM23 12H20.5556V16.8889H23V12ZM20.5556 9.55556H18.1111V12H20.5556V9.55556ZM5.88889 12H3.44444V14.4444H5.88889V12ZM3.44444 9.55556H1V12H3.44444V9.55556ZM12 3.44444H14.4444V1H12V3.44444ZM2.83333 2.83333V6.5H6.5V2.83333H2.83333ZM7.11111 8.33333H2.22222C1.55 8.33333 1 7.78333 1 7.11111V2.22222C1 1.55 1.55 1 2.22222 1H7.11111C7.78333 1 8.33333 1.55 8.33333 2.22222V7.11111C8.33333 7.78333 7.78333 8.33333 7.11111 8.33333ZM2.83333 17.5V21.1667H6.5V17.5H2.83333ZM7.11111 23H2.22222C1.55 23 1 22.45 1 21.7778V16.8889C1 16.2167 1.55 15.6667 2.22222 15.6667H7.11111C7.78333 15.6667 8.33333 16.2167 8.33333 16.8889V21.7778C8.33333 22.45 7.78333 23 7.11111 23ZM17.5 2.83333V6.5H21.1667V2.83333H17.5ZM21.7778 8.33333H16.8889C16.2167 8.33333 15.6667 7.78333 15.6667 7.11111V2.22222C15.6667 1.55 16.2167 1 16.8889 1H21.7778C22.45 1 23 1.55 23 2.22222V7.11111C23 7.78333 22.45 8.33333 21.7778 8.33333ZM20.5556 20.5556V16.8889H15.6667V19.3333H18.1111V23H23V20.5556H20.5556ZM18.1111 12H13.2222V14.4444H18.1111V12ZM13.2222 9.55556H5.88889V12H8.33333V14.4444H10.7778V12H13.2222V9.55556ZM14.4444 8.33333V5.88889H12V3.44444H9.55556V8.33333H14.4444ZM5.58333 3.75H3.75V5.58333H5.58333V3.75ZM5.58333 18.4167H3.75V20.25H5.58333V18.4167ZM20.25 3.75H18.4167V5.58333H20.25V3.75Z" fill="white"/>
</svg>
