<svg width="24" height="25" viewBox="0 0 24 25" fill="none" xmlns="http://www.w3.org/2000/svg">
<path d="M19.42 12.6411H16C15.59 12.6411 15.25 12.3011 15.25 11.8911V4.90111C15.25 4.16111 15.54 3.47111 16.06 2.95111C16.58 2.43111 17.27 2.14111 18.01 2.14111H18.02C19.27 2.15111 20.45 2.64111 21.35 3.53111C22.25 4.44111 22.74 5.64111 22.74 6.89111V9.31111C22.75 11.3011 21.41 12.6411 19.42 12.6411ZM16.75 11.1411H19.42C20.58 11.1411 21.25 10.4711 21.25 9.31111V6.89111C21.25 6.03111 20.91 5.21111 20.3 4.59111C19.69 3.99111 18.88 3.65111 18.02 3.64111C18.02 3.64111 18.02 3.64111 18.01 3.64111C17.68 3.64111 17.36 3.77111 17.12 4.01111C16.88 4.25111 16.75 4.56111 16.75 4.90111V11.1411Z" fill="#757575"/>
<path d="M8.99976 24.2211C8.52976 24.2211 8.08977 24.0411 7.75977 23.7011L6.09973 22.0311C6.00973 21.9411 5.86978 21.9311 5.76978 22.0111L4.05975 23.2911C3.52975 23.6911 2.82974 23.7611 2.22974 23.4611C1.62974 23.1611 1.25977 22.5611 1.25977 21.8911V6.89111C1.25977 3.87111 2.98977 2.14111 6.00977 2.14111H18.0098C18.4198 2.14111 18.7598 2.48111 18.7598 2.89111C18.7598 3.30111 18.4198 3.64111 18.0098 3.64111C17.3198 3.64111 16.7598 4.20111 16.7598 4.89111V21.8911C16.7598 22.5611 16.3897 23.1611 15.7897 23.4611C15.1997 23.7611 14.4898 23.6911 13.9598 23.2911L12.2498 22.0111C12.1498 21.9311 12.0097 21.9511 11.9297 22.0311L10.2498 23.7111C9.90976 24.0411 9.46976 24.2211 8.99976 24.2211ZM5.90973 20.4611C6.36973 20.4611 6.81973 20.6311 7.15973 20.9811L8.81976 22.6511C8.87976 22.7111 8.95976 22.7211 8.99976 22.7211C9.03976 22.7211 9.11975 22.7111 9.17975 22.6511L10.8597 20.9711C11.4797 20.3511 12.4598 20.2911 13.1498 20.8211L14.8497 22.0911C14.9597 22.1711 15.0597 22.1411 15.1097 22.1111C15.1597 22.0811 15.2498 22.0211 15.2498 21.8911V4.89111C15.2498 4.44111 15.3597 4.01111 15.5497 3.64111H5.99976C3.77976 3.64111 2.74976 4.67111 2.74976 6.89111V21.8911C2.74976 22.0311 2.83977 22.0911 2.88977 22.1211C2.94977 22.1511 3.04978 22.1711 3.14978 22.0911L4.85974 20.8111C5.16974 20.5811 5.53973 20.4611 5.90973 20.4611Z" fill="#757575"/>
<path d="M12 10.6411H6C5.59 10.6411 5.25 10.3011 5.25 9.89111C5.25 9.48111 5.59 9.14111 6 9.14111H12C12.41 9.14111 12.75 9.48111 12.75 9.89111C12.75 10.3011 12.41 10.6411 12 10.6411Z" fill="#757575"/>
<path d="M11.25 14.6411H6.75C6.34 14.6411 6 14.3011 6 13.8911C6 13.4811 6.34 13.1411 6.75 13.1411H11.25C11.66 13.1411 12 13.4811 12 13.8911C12 14.3011 11.66 14.6411 11.25 14.6411Z" fill="#757575"/>
</svg>
