<svg width="31" height="31" viewBox="0 0 31 31" fill="none" xmlns="http://www.w3.org/2000/svg">
<path d="M21.6105 0.916656H9.38966C4.08133 0.916656 0.916748 4.08124 0.916748 9.38957V21.5958C0.916748 26.9187 4.08133 30.0833 9.38966 30.0833H21.5959C26.9042 30.0833 30.0688 26.9187 30.0688 21.6104V9.38957C30.0834 4.08124 26.9188 0.916656 21.6105 0.916656ZM24.2501 16.5937H9.38966L13.7792 20.9833C14.2022 21.4062 14.2022 22.1062 13.7792 22.5292C13.5605 22.7479 13.2834 22.85 13.0063 22.85C12.7292 22.85 12.4522 22.7479 12.2334 22.5292L5.97716 16.2729C5.773 16.0687 5.65633 15.7917 5.65633 15.5C5.65633 15.2083 5.773 14.9312 5.97716 14.7271L12.2334 8.47082C12.6563 8.04791 13.3563 8.04791 13.7792 8.47082C14.2022 8.89374 14.2022 9.59374 13.7792 10.0167L9.38966 14.4062H24.2501C24.848 14.4062 25.3438 14.9021 25.3438 15.5C25.3438 16.0979 24.848 16.5937 24.2501 16.5937Z" fill="white"/>
</svg>
